<svg id="Group_28" data-name="Group 28" xmlns="http://www.w3.org/2000/svg" width="146.068" height="126.538" viewBox="0 0 146.068 126.538">
  <path id="Path_97" data-name="Path 97" d="M464.571-175.682c-4.273-1.273-7.2-3.918-8.233-8.343A10.95,10.95,0,0,1,458-192.868a2.917,2.917,0,0,0,.422-1.946,8.859,8.859,0,0,1,6.819-10.563,8.71,8.71,0,0,1,10.388,6.419,23.662,23.662,0,0,1,.155,4.223,3.808,3.808,0,0,0,.384,1.833,10.988,10.988,0,0,1-5.527,16.835,1.372,1.372,0,0,0-1.11,1.551c.053,2.934.021,5.87.021,8.956h6.214v4.7H332.137v-4.65h8.991V-287.4l54.522,22.18v-22.139c2.991,1.209,5.793,2.329,8.586,3.472q24.534,10.04,49.074,20.062a1.828,1.828,0,0,1,1.34,2.033q-.049,47.084-.027,94.168v2.018h9.948Zm-14.69.911c.03-.461.066-.753.066-1.044q0-41.557.028-83.113c0-1-.447-1.313-1.247-1.639q-23.545-9.576-47.073-19.193c-.371-.151-.768-.24-1.151-.358v105.347ZM346.051-280.211v96.076h22.517c.026-.405.066-.738.066-1.07q0-42.358.021-84.717a1.472,1.472,0,0,0-1.083-1.632c-2.381-.9-4.731-1.884-7.092-2.836Zm27.274,96.048H395.6v-12.858h-7.418v-4.757h7.415v-13.605h-7.415v-4.78h7.4v-11.707h-7.428v-4.689h7.463v-11.648h-7.447V-253h7.525c0-2-.073-3.86.029-5.707.056-1.034-.358-1.419-1.252-1.776-6-2.4-11.98-4.853-17.967-7.289-1.022-.415-2.047-.821-3.115-1.248v8.1h6.875v4.694h-6.9v12.365h6.866v4.759H373.4v12.387h6.865v4.816h-6.895v12.429h6.866v4.8h-6.851v12.438h6.885v4.719h-6.94ZM449.8-169.8h-49.37v4.21H449.8Zm15.028-22.758c-.6.492-1.09.893-1.579,1.3a6.236,6.236,0,0,0-.786,9.13,6.275,6.275,0,0,0,9.163.163,6.26,6.26,0,0,0-.454-9.156c-.538-.477-1.1-.931-1.685-1.432.474-.793.912-1.441,1.263-2.131a4.086,4.086,0,0,0-1.067-5.042,4.088,4.088,0,0,0-5.038-.018,4.092,4.092,0,0,0-1.1,5.038C463.9-194.015,464.339-193.37,464.827-192.558ZM387.959-179.23v13.617h7.623V-179.23Zm-34.488,13.665V-179.2h-7.428v13.631Zm29.641-.05v-13.651h-4.932v13.651Zm-24.564-13.629v13.589h4.942v-13.589ZM373.2-165.607v-13.662h-4.827v13.662Z" transform="translate(-332.137 287.397)" fill="#fff"/>
  <path id="Path_98" data-name="Path 98" d="M464.073-230.222v-4.629h8.357v4.629Z" transform="translate(-363.337 274.971)" fill="#fff"/>
  <path id="Path_99" data-name="Path 99" d="M472.447-164.116v4.646h-8.31v-4.646Z" transform="translate(-363.352 258.244)" fill="#fff"/>
  <path id="Path_100" data-name="Path 100" d="M441.008-230.2h-8.232v-4.668h8.232Z" transform="translate(-355.936 274.975)" fill="#fff"/>
  <path id="Path_101" data-name="Path 101" d="M441.014-164.123v4.638h-8.237v-4.638Z" transform="translate(-355.936 258.245)" fill="#fff"/>
  <path id="Path_102" data-name="Path 102" d="M472.443-216.092h-8.328v-4.538h8.328Z" transform="translate(-363.347 271.608)" fill="#fff"/>
  <path id="Path_103" data-name="Path 103" d="M464.117-201.96v-4.59h8.321v4.59Z" transform="translate(-363.347 268.278)" fill="#fff"/>
  <path id="Path_104" data-name="Path 104" d="M472.541-187.825h-8.364v-4.728c2.577,0,5.116-.024,7.653.037.244.006.659.525.679.827C472.586-190.473,472.541-189.25,472.541-187.825Z" transform="translate(-363.362 264.969)" fill="#fff"/>
  <path id="Path_105" data-name="Path 105" d="M464.176-178.25h8.268v4.587h-8.268Z" transform="translate(-363.361 261.586)" fill="#fff"/>
  <path id="Path_106" data-name="Path 106" d="M441.036-220.671v4.534H432.79v-4.534Z" transform="translate(-355.939 271.618)" fill="#fff"/>
  <path id="Path_107" data-name="Path 107" d="M441.016-201.864h-8.193V-206.5h8.193Z" transform="translate(-355.947 268.266)" fill="#fff"/>
  <path id="Path_108" data-name="Path 108" d="M441.037-192.435v4.595h-8.254v-4.595Z" transform="translate(-355.938 264.941)" fill="#fff"/>
  <path id="Path_109" data-name="Path 109" d="M441.037-178.2v4.551h-8.225V-178.2Z" transform="translate(-355.944 261.574)" fill="#fff"/>
  <path id="Path_110" data-name="Path 110" d="M356.513-230.254v-4.615h8.307v4.615Z" transform="translate(-337.901 274.975)" fill="#fff"/>
  <path id="Path_111" data-name="Path 111" d="M364.809-164.254v4.751h-8.394c0-1.388-.037-2.7.032-4.008a1.006,1.006,0,0,1,.67-.711C359.658-164.274,362.2-164.254,364.809-164.254Z" transform="translate(-337.876 258.277)" fill="#fff"/>
  <path id="Path_112" data-name="Path 112" d="M364.82-216.084h-8.276v-4.586h8.276Z" transform="translate(-337.909 271.618)" fill="#fff"/>
  <path id="Path_113" data-name="Path 113" d="M356.567-178.267h8.243v4.58h-8.243Z" transform="translate(-337.914 261.59)" fill="#fff"/>
  <path id="Path_114" data-name="Path 114" d="M364.825-206.67v4.707h-8.4c0-1.338-.046-2.694.041-4.042.016-.24.576-.628.891-.635C359.8-206.693,362.243-206.67,364.825-206.67Z" transform="translate(-337.877 268.308)" fill="#fff"/>
  <path id="Path_115" data-name="Path 115" d="M364.812-187.785h-8.259v-4.641h8.259Z" transform="translate(-337.911 264.938)" fill="#fff"/>
</svg>
