<svg id="Group_27" data-name="Group 27" xmlns="http://www.w3.org/2000/svg" width="141.6" height="141.351" viewBox="0 0 141.6 141.351">
  <path id="Path_62" data-name="Path 62" d="M720.913-228.1a27.666,27.666,0,0,1,4.064,3.582c2.942,3.86,1.844,9.126-2.394,12.083-5.593,3.9-11.227,7.747-16.841,11.62q-23.75,16.382-47.479,32.793a4.26,4.26,0,0,1-4.613.472c-13.335-5.692-26.706-11.3-40.067-16.927-.308-.13-.625-.241-.925-.355-2.53,3.992-7.563,5.529-12.109,1.083q-5.353,5.359-10.709,10.719c-.312.312-.595.788-.967.879a4.333,4.333,0,0,1-2.454.186c-.605-.26-.951-1.21-1.317-1.906-.143-.27-.027-.676-.027-1.019q0-22.7,0-45.4c0-2.572.657-3.237,3.184-3.243q2.137,0,4.273-.02c.077,0,.154-.085.342-.2-.748-1.522-1.493-3.053-2.253-4.577-1.684-3.378-3.39-6.745-5.059-10.13-1.17-2.373-.169-3.939,2.494-3.941q10.61-.007,21.219,0h1.737v-1.855q0-30.509,0-61.019c0-2.474.678-3.163,3.114-3.164q18.124,0,36.25,0c2.354,0,3.074.716,3.075,3.057,0,5.2,0,10.4,0,15.809h43.928c2.562,0,3.231.662,3.232,3.2q0,21,0,42.006v1.968h1.624q10.683,0,21.367,0c2.641,0,3.622,1.58,2.462,3.964-.857,1.764-1.747,3.513-2.623,5.268S721.691-229.652,720.913-228.1ZM632.3-204.656H649.21c4.371,0,8.742.012,13.113-.006,1.98-.008,2.875-.915,2.921-2.873a15.475,15.475,0,0,1,.015-1.619,1.531,1.531,0,0,0-1.03-1.706c-10.437-5.533-20.853-11.1-31.3-16.618a2.253,2.253,0,0,0-1.719-.016c-5.613,2.444-11.191,4.966-16.8,7.421a1.5,1.5,0,0,0-1.066,1.615q.05,13.779,0,27.559a1.473,1.473,0,0,0,1.069,1.6c13.366,5.6,26.716,11.239,40.092,16.814a2.413,2.413,0,0,0,1.949-.2c4.283-2.863,8.51-5.81,12.752-8.736q25.264-17.431,50.523-34.869c2.074-1.433,2.63-3.343,1.591-5.173-1.022-1.8-2.767-2.241-5.095-1.236q-19.692,8.5-39.373,17.019c-3.277,1.42-6.5,2.962-9.8,4.338A12.922,12.922,0,0,1,662.517-200c-9.575.121-19.154.061-28.731.061H632.3Zm-16.468-99v61.14h32.83v-61.14Zm-3.19,79.138c5.954-2.64,11.881-5.221,17.759-7.909a3.934,3.934,0,0,1,3.88.161q7.551,4.117,15.174,8.1a5.31,5.31,0,0,0,2.352.613q26.527.052,53.054.013a5.029,5.029,0,0,0,1.848-.334c2.542-1.031,5.061-2.117,7.578-3.208a2.15,2.15,0,0,0,1.059-.707c1.663-3.208,3.268-6.446,4.961-9.819h-128.8a1.779,1.779,0,0,0,.069.48c2.142,4.3,4.28,8.6,6.46,12.887a1.322,1.322,0,0,0,.948.658,1.35,1.35,0,0,0,.918-.683,7.221,7.221,0,0,1,4.231-3.66C607.293-228.948,610.052-227.867,612.641-224.515Zm83.195-60.23H653.571v42.273h42.265ZM589.827-179.738c2.988-3,5.7-5.765,8.462-8.469a2.916,2.916,0,0,0,.954-2.305c-.034-8.888-.02-17.776-.02-26.664v-1.516h-9.4Zm18.828-24.908c0-5.3.008-10.608,0-15.911,0-1.819-.96-2.97-2.38-2.951s-2.315,1.163-2.333,3c-.012,1.325,0,2.652,0,3.977,0,9.184-.031,18.367.047,27.549a4.237,4.237,0,0,0,1.1,2.67,2.266,2.266,0,0,0,2.227.118,3.538,3.538,0,0,0,1.289-2.4C608.708-193.94,608.653-199.294,608.654-204.646Zm61.306-3.27,24.43-10.627-.073-.176H659.612c3.107,1.657,5.847,3.144,8.613,4.581a2.828,2.828,0,0,1,1.748,2.933C669.9-210.189,669.96-209.166,669.96-207.916Z" transform="translate(-585.03 308.431)" fill="#fff"/>
  <path id="Path_63" data-name="Path 63" d="M643.88-271.267h4.513v4.541H643.88Z" transform="translate(-598.947 299.643)" fill="#fff"/>
  <path id="Path_64" data-name="Path 64" d="M660.832-271.2v4.479h-4.583V-271.2Z" transform="translate(-601.872 299.627)" fill="#fff"/>
  <path id="Path_65" data-name="Path 65" d="M636.068-254.289h-4.5v-4.577h4.5Z" transform="translate(-596.036 296.71)" fill="#fff"/>
  <path id="Path_66" data-name="Path 66" d="M648.421-254.289h-4.5v-4.577h4.5Z" transform="translate(-598.957 296.71)" fill="#fff"/>
  <path id="Path_67" data-name="Path 67" d="M656.268-258.934h4.512v4.583h-4.512Z" transform="translate(-601.877 296.726)" fill="#fff"/>
  <path id="Path_68" data-name="Path 68" d="M631.542-283.626h4.541v4.531h-4.541Z" transform="translate(-596.029 302.565)" fill="#fff"/>
  <path id="Path_69" data-name="Path 69" d="M636.071-241.932h-4.5v-4.583h4.5Z" transform="translate(-596.035 293.79)" fill="#fff"/>
  <path id="Path_70" data-name="Path 70" d="M648.447-246.517v4.535h-4.53v-4.535Z" transform="translate(-598.956 293.79)" fill="#fff"/>
  <path id="Path_71" data-name="Path 71" d="M660.792-246.543v4.523h-4.548v-4.523Z" transform="translate(-601.871 293.796)" fill="#fff"/>
  <path id="Path_72" data-name="Path 72" d="M636.079-229.619H631.55v-4.556h4.529Z" transform="translate(-596.031 290.871)" fill="#fff"/>
  <path id="Path_73" data-name="Path 73" d="M648.432-229.619H643.9v-4.556h4.529Z" transform="translate(-598.952 290.871)" fill="#fff"/>
  <path id="Path_74" data-name="Path 74" d="M660.792-234.187v4.522h-4.547v-4.522Z" transform="translate(-601.871 290.874)" fill="#fff"/>
  <path id="Path_75" data-name="Path 75" d="M631.5-291.44v-4.535h4.53v4.535Z" transform="translate(-596.02 305.486)" fill="#fff"/>
  <path id="Path_76" data-name="Path 76" d="M648.4-291.4h-4.519v-4.583H648.4Z" transform="translate(-598.946 305.487)" fill="#fff"/>
  <path id="Path_77" data-name="Path 77" d="M660.786-291.4h-4.529v-4.555h4.529Z" transform="translate(-601.874 305.481)" fill="#fff"/>
  <path id="Path_78" data-name="Path 78" d="M643.807-279.093v-4.479h4.583v4.479Z" transform="translate(-598.93 302.553)" fill="#fff"/>
  <path id="Path_79" data-name="Path 79" d="M660.754-279.036h-4.535v-4.531h4.535Z" transform="translate(-601.865 302.552)" fill="#fff"/>
  <path id="Path_80" data-name="Path 80" d="M631.491-266.733v-4.52h4.582v4.52Z" transform="translate(-596.017 299.64)" fill="#fff"/>
  <path id="Path_81" data-name="Path 81" d="M685.5-271.266v4.539H680.94v-4.539Z" transform="translate(-607.711 299.643)" fill="#fff"/>
  <path id="Path_82" data-name="Path 82" d="M697.835-266.645h-4.5v-4.577h4.5Z" transform="translate(-610.643 299.632)" fill="#fff"/>
  <path id="Path_83" data-name="Path 83" d="M705.694-271.322h4.478v4.583h-4.478Z" transform="translate(-613.565 299.656)" fill="#fff"/>
  <path id="Path_84" data-name="Path 84" d="M722.563-271.234v4.542h-4.53v-4.542Z" transform="translate(-616.482 299.635)" fill="#fff"/>
  <path id="Path_85" data-name="Path 85" d="M685.5-258.9v4.522h-4.547V-258.9Z" transform="translate(-607.714 296.718)" fill="#fff"/>
  <path id="Path_86" data-name="Path 86" d="M693.271-254.343v-4.522h4.548v4.522Z" transform="translate(-610.627 296.71)" fill="#fff"/>
  <path id="Path_87" data-name="Path 87" d="M705.629-254.345v-4.515h4.54v4.515Z" transform="translate(-613.549 296.709)" fill="#fff"/>
  <path id="Path_88" data-name="Path 88" d="M680.987-246.61h4.478v4.583h-4.478Z" transform="translate(-607.722 293.812)" fill="#fff"/>
  <path id="Path_89" data-name="Path 89" d="M693.288-246.56h4.522v4.549h-4.522Z" transform="translate(-610.631 293.8)" fill="#fff"/>
  <path id="Path_90" data-name="Path 90" d="M710.2-241.978h-4.521v-4.548H710.2Z" transform="translate(-613.56 293.792)" fill="#fff"/>
  <path id="Path_91" data-name="Path 91" d="M722.565-246.554v4.539H718v-4.539Z" transform="translate(-616.475 293.799)" fill="#fff"/>
  <path id="Path_92" data-name="Path 92" d="M697.861-234.2v4.548h-4.573V-234.2Z" transform="translate(-610.631 290.878)" fill="#fff"/>
  <path id="Path_93" data-name="Path 93" d="M710.2-234.182v4.515h-4.54v-4.515Z" transform="translate(-613.557 290.873)" fill="#fff"/>
  <path id="Path_94" data-name="Path 94" d="M722.559-234.187v4.523h-4.548v-4.523Z" transform="translate(-616.477 290.874)" fill="#fff"/>
  <path id="Path_95" data-name="Path 95" d="M722.568-258.915v4.548h-4.573v-4.548Z" transform="translate(-616.474 296.722)" fill="#fff"/>
  <path id="Path_96" data-name="Path 96" d="M685.5-229.613h-4.547v-4.573H685.5Z" transform="translate(-607.714 290.874)" fill="#fff"/>
</svg>
