<svg id="Group_15" data-name="Group 15" xmlns="http://www.w3.org/2000/svg" width="127.648" height="127.678" viewBox="0 0 127.648 127.678">
  <path id="Path_26" data-name="Path 26" d="M1035.533-28.279c-1.447,0-2.72,0-3.994,0-2.092-.009-2.83-.736-2.844-2.8,0-.519,0-1.037,0-1.658h-63.83c0,.731.029,1.475-.006,2.214A2.162,2.162,0,0,1,962.6-28.29c-1.464.042-2.929.01-4.574.01v3.173c0,2.707.019,5.414-.009,8.121a2.147,2.147,0,0,1-2.255,2.373q-5.7.052-11.4,0c-1.518-.014-2.287-.937-2.29-2.627-.01-5.126,0-10.252,0-15.6-2.069,0-4.089,0-6.107,0-2.35,0-3.011-.673-3.011-3.061V-139.187c0-2.444.646-3.078,3.134-3.078h121.364c2.541,0,3.15.619,3.15,3.207v103c0,2.628-.6,3.217-3.285,3.217h-5.833v1.626q0,6.911,0,13.82c0,2-.76,2.784-2.711,2.789q-5.271.015-10.541,0c-1.9-.005-2.69-.781-2.7-2.658C1035.525-20.865,1035.533-24.47,1035.533-28.279ZM975.712-128.546c-3.342,11.374-6.673,22.708-10.022,34.108,3.347.133,3.734.544,3.734,3.664,0,2.422.005,4.843,0,7.264-.006,2.055-.755,2.784-2.849,2.8-.547,0-1.093,0-1.591,0V-46.6h15.786v-9.153c-.037-.04-.059-.088-.1-.1-.262-.112-.524-.221-.79-.322-3.076-1.162-5.236-3.323-5.659-6.556a30.445,30.445,0,0,1,.033-8.63c.675-4.222,3.78-6.522,8.848-7.2,0-.771-.03-1.57.005-2.365.119-2.6-.109-5.283.469-7.779A13.566,13.566,0,0,1,998.5-98.9a13.718,13.718,0,0,1,11.953,13.587c.01,2.266,0,4.533,0,6.777,5.066.589,8.385,3.316,9,7.619a45.154,45.154,0,0,1,.116,6.4,8.78,8.78,0,0,1-5.543,8.206c-.424.174-.852.34-1.216.485V-46.6h15.785V-80.716c-.808,0-1.517.028-2.224-.007a2.117,2.117,0,0,1-2.213-2.12q-.072-4.7,0-9.4a2.12,2.12,0,0,1,2.195-2.14c.467-.028.937,0,1.541,0-3.375-11.474-6.708-22.808-10.047-34.159ZM942.074-37.423V-39.23q0-45.378,0-90.757c0-2.553.613-3.158,3.2-3.158h103c2.635,0,3.219.6,3.219,3.281v92.4h4.478V-137.61H937.624V-37.423Zm4.655-43.225v61.376h6.743v-1.68q0-13.745,0-27.492c0-1.98.736-2.955,2.236-2.978q2.314-.036,2.318,3.039,0,6.981,0,13.96v1.476h2.21v-47.7Zm100.1,61.424V-80.6h-13.506v47.672h2.208v-1.635c0-4.8-.012-9.591.007-14.387a2.231,2.231,0,0,1,2.868-2.4c1.3.354,1.695,1.326,1.691,2.612q-.031,13.96-.011,27.92v1.591ZM960.85-94.414c3.344-11.369,6.673-22.694,10.017-34.063H946.744v34.063Zm86.029-34.1h-24.2q5.04,17.14,10.009,34.033h14.187Zm-40.745,47.567-.243-.024c0-1.472.047-2.944-.009-4.413a9.185,9.185,0,0,0-8.591-8.985,8.74,8.74,0,0,0-9.362,7.7,61.311,61.311,0,0,0,.093,12.47c.432,4.1,4.464,7.033,8.869,7.162s7.386-2.006,8.41-6.46A61.826,61.826,0,0,0,1006.133-80.943Zm22.5,39.086H964.983v4.387h63.647Zm-34.223-4.716v-16.1l-2.284-.481c-.7,3.665-2.638,6.121-6.128,7.266a1.062,1.062,0,0,0-.587.782c-.042,2.824-.026,5.65-.026,8.53Zm13.77-.011c0-2.865.016-5.648-.024-8.429a1.073,1.073,0,0,0-.529-.832c-3.519-1.095-5.458-3.548-6.186-7.156l-2.312.515v15.9ZM983.261-73.808c-2.826.083-4.617,1.781-4.707,4.4-.053,1.514-.037,3.032-.006,4.548a4.7,4.7,0,0,0,6.6,4.352c1.988-.795,3.364-4.524,2.068-5.842A14.613,14.613,0,0,1,983.261-73.808Zm26.936-.008a15.66,15.66,0,0,1-3.967,7.9,1.739,1.739,0,0,0-.322,1.032,4.128,4.128,0,0,0,3.845,4.692c2.923.165,5.111-1.618,5.244-4.368.08-1.653.045-3.314.009-4.971A4.373,4.373,0,0,0,1010.2-73.815ZM964.786-85.337v-4.4H946.738v4.4Zm63.974-.027h18.06v-4.4h-18.06Z" transform="translate(-932.956 142.265)" fill="#fff"/>
</svg>
