<svg id="Group_13" data-name="Group 13" xmlns="http://www.w3.org/2000/svg" width="138.949" height="138.882" viewBox="0 0 138.949 138.882">
  <path id="Path_23" data-name="Path 23" d="M428.22-117.854v-3.8a12.4,12.4,0,0,1,4.222-6.742q9.15-7,18.281-14.027c1.551-1.187,3.182-1.068,4.182.248.984,1.3.659,2.914-.874,4.112-2.242,1.754-4.506,3.478-6.762,5.214-3.831,2.949-7.688,5.864-11.484,8.856a5.294,5.294,0,0,0-1.816,6.074,4.773,4.773,0,0,0,4.475,3.532,6.028,6.028,0,0,0,4.486-1.518q26.1-20.094,52.209-40.169c2.092-1.609,2.958-1.622,5.029-.028q20.785,15.992,41.567,31.987c3.759,2.893,7.478,5.841,11.3,8.643a5.3,5.3,0,0,0,8.491-3.336c.531-2.6-.817-4.35-2.779-5.854q-28.5-21.862-56.97-43.765c-3.076-2.365-5.179-2.348-8.274.037-6.369,4.909-12.733,9.826-19.147,14.676a4.9,4.9,0,0,1-2.677.978,2.29,2.29,0,0,1-2.2-1.894,2.859,2.859,0,0,1,1.245-3.18c5.064-3.865,10.084-7.789,15.169-11.626,3.108-2.344,5.9-5.223,9.87-6.2h3.8a41.644,41.644,0,0,1,5.657,2.989c5.339,3.927,10.54,8.04,15.8,12.081,2.091,1.607,4.186,3.209,6.487,4.973v-1.594c0-4.874.063-9.749-.035-14.62a4.165,4.165,0,0,1,1.662-3.829H547.3c1.491.717,1.933,1.906,1.925,3.532-.054,10.441.006,20.883-.067,31.324a3.4,3.4,0,0,0,1.572,3.1c4.3,3.222,8.642,6.408,12.743,9.874a10.632,10.632,0,0,1,1.4,14.666,10.9,10.9,0,0,1-14.567,2.495c-.321-.206-.656-.392-1.035-.618v36.934c6.518,2.036,10.087,5.724,11.945,12.186a3.4,3.4,0,0,0,1.071,1.463,13.544,13.544,0,0,1,3.974,15.112,13.509,13.509,0,0,1-12.759,8.811q-55.868.009-111.736,0a13.319,13.319,0,0,1-9.985-4.386,16.233,16.233,0,0,1-3.567-7v-4.34c.076-.107.2-.206.222-.325a13.8,13.8,0,0,1,4.934-8.165,3.021,3.021,0,0,0,.8-1.473,16.121,16.121,0,0,1,9.42-11.007c.808-.359,1.66-.619,2.424-.9v-36.956c-.461.3-.794.527-1.13.745-5.349,3.482-14.667,1.723-16.406-6.689A3.086,3.086,0,0,0,428.22-117.854Zm23.327,43.092c.485.12.83.231,1.184.29a16.514,16.514,0,0,1,8.559,4.34,3.2,3.2,0,0,0,1.968.8,13.859,13.859,0,0,1,10.456,4.613,2.783,2.783,0,0,0,1.805.812q22.17.068,44.338,0a2.571,2.571,0,0,0,1.7-.753c2.286-2.5,5.065-4.321,8.4-4.46,2.5-.105,4.145-1.2,6.068-2.493,2.266-1.519,4.968-2.387,7.482-3.537.232.056.269-.257.269-.568q0-19.457.025-38.915a1.984,1.984,0,0,0-.988-1.742q-22.032-16.922-44.024-33.9a1.532,1.532,0,0,0-2.282.05q-21.937,16.927-43.932,33.786a2.353,2.353,0,0,0-1.049,2.124q.049,17.492.022,34.982Zm87.224,32.59c4.792,0,9.583.018,14.375-.005a8.214,8.214,0,0,0,8.131-5.758c1.1-3.538-.262-6.891-3.537-9.3a4.572,4.572,0,0,1-1.658-2.6c-.842-4.633-3.366-7.777-7.9-9.015-4.549-1.241-8.377.215-11.313,3.861a3.532,3.532,0,0,1-3.7,1.324,7.993,7.993,0,0,0-9.43,7.933,3.1,3.1,0,0,1-2.119,3.228,5.051,5.051,0,0,0-3.069,3.392,5.393,5.393,0,0,0,5.437,6.928C528.918-42.142,533.845-42.172,538.772-42.172Zm-82.2,0c4.972,0,9.946.032,14.918-.012a5.411,5.411,0,0,0,5.452-4.538,5.267,5.267,0,0,0-3.253-5.776,3.157,3.157,0,0,1-2.1-3.242c-.011-4.818-4.472-8.848-8.912-8.017a4.274,4.274,0,0,1-4.589-1.642,10.067,10.067,0,0,0-10.96-3.45,10.223,10.223,0,0,0-7.743,8.51,4.828,4.828,0,0,1-2.1,3.406,7.52,7.52,0,0,0-3.468,7.823,8.018,8.018,0,0,0,8.244,6.931C446.894-42.144,451.73-42.173,456.567-42.174Zm76.357-127.975c0,5.429.1,10.751-.053,16.065A4.467,4.467,0,0,0,535-149.75c2.948,2.033,5.722,4.322,8.707,6.61v-27.009ZM476.385-58.392c.68.854,1.1,1.461,1.6,1.995.8.853,1.738,1.588,2.444,2.506a1.97,1.97,0,0,0,1.779.887q15.446-.04,30.892,0a1.991,1.991,0,0,0,1.784-.878c.744-.946,1.72-1.706,2.547-2.593.471-.505.844-1.1,1.453-1.916Zm4.96,16.161h32.639l-1.4-5.265h-29.85Z" transform="translate(-428.22 175.631)" fill="#fff"/>
  <path id="Path_24" data-name="Path 24" d="M464.163-148.655a2.661,2.661,0,0,1-2.8,2.652,2.666,2.666,0,0,1-2.617-2.835,2.656,2.656,0,0,1,2.733-2.583A2.656,2.656,0,0,1,464.163-148.655Z" transform="translate(-427.275 176.38)" fill="#fff"/>
  <path id="Path_25" data-name="Path 25" d="M496.305-115.554c.244-.271.429-.454.589-.657,3.5-4.46,8.074-6.19,13.548-4.805,5.581,1.412,8.735,5.365,9.949,10.848a15.966,15.966,0,0,1-2.555,12.636c-2.749,4.16-6.471,7.395-10.168,10.647-3.052,2.685-6.155,5.309-9.246,7.95-1.374,1.174-2.688,1.325-3.908.244-5.509-4.877-11.072-9.7-16.417-14.755a18.789,18.789,0,0,1-6.054-11.081c-1.108-7.774,3.405-15.525,11.331-16.75a12.317,12.317,0,0,1,11.847,4.439C495.565-116.438,495.9-116.031,496.305-115.554Zm-.076,31.469c4.837-4.379,9.435-8.385,13.83-12.6a21.884,21.884,0,0,0,4-5.414,9.67,9.67,0,0,0-.479-10.4,7.3,7.3,0,0,0-11.822-.877,18.872,18.872,0,0,0-2.685,4.64c-.576,1.267-1.239,2.19-2.719,2.224-1.389.032-2.086-.653-2.8-2.283a20.121,20.121,0,0,0-2.173-4.024,7.04,7.04,0,0,0-7.065-3.049c-5.181.8-7.383,5.973-6.9,10.105a12.522,12.522,0,0,0,3.819,7.608C486.074-93.438,491.083-88.891,496.229-84.085Z" transform="translate(-426.869 177.307)" fill="#fff"/>
</svg>
