<svg id="Group_26" data-name="Group 26" xmlns="http://www.w3.org/2000/svg" width="141.352" height="141.351" viewBox="0 0 141.352 141.351">
  <path id="Path_53" data-name="Path 53" d="M66.707-172.86c-1.941-1.988-1.92-2.848.131-4.9l134.89-134.89c2.051-2.05,2.909-2.071,4.9-.131v1.932c-3.456,3.481-6.9,6.973-10.369,10.442Q137.77-241.912,79.275-183.424q-5.3,5.3-10.636,10.564Z" transform="translate(-65.275 314.211)" fill="#fff"/>
  <path id="Path_54" data-name="Path 54" d="M254.192-196.071c-1.469,2.081-2.786,2.213-4.6.4q-19.469-19.454-38.906-38.94a3.6,3.6,0,0,1-1.124-2.078,2.6,2.6,0,0,1,1-2.03,3.662,3.662,0,0,1,2.419-.078c.512.118.936.7,1.356,1.123q16.933,16.918,33.855,33.845c.343.344.707.667,1.211,1.141v-31.757h-2.045q-6.691,0-13.382,0c-2.577,0-3.332-.757-3.393-3.363-.009-.4-.046-.8-.074-1.268h-4.521c0,.679.04,1.348-.008,2.011a2.526,2.526,0,0,1-2.342,2.6,2.458,2.458,0,0,1-2.449-2.472,32.687,32.687,0,0,1,0-4.548,2.366,2.366,0,0,1,2.61-2.441c2.987-.069,5.979-.078,8.966,0,1.794.049,2.583,1.007,2.63,2.854.014.548,0,1.1,0,1.857h1.54c4.6,0,9.2.03,13.8-.017a3.639,3.639,0,0,1,3.45,1.482Z" transform="translate(-112.841 291.058)" fill="#fff"/>
  <path id="Path_55" data-name="Path 55" d="M137.058-123.024a3.6,3.6,0,0,1-1.532-3.435q.025-16.557.009-33.113c0-.23-.007-.46.005-.69.1-1.805.94-2.774,2.4-2.777,1.491,0,2.4,1.061,2.407,2.905q.016,15.314.005,30.629v1.7h23.482c0-.693-.023-1.406,0-2.117a2.32,2.32,0,0,1,2.5-2.5q11.589-.038,23.179-.006a2.328,2.328,0,0,1,2.612,2.409,19.224,19.224,0,0,1-.043,4.538c-.147.878-.97,1.642-1.49,2.457h-1.656c-1.866-1.03-1.6-2.883-1.651-4.61H168.575c-.007,1.73.242,3.5-1.436,4.61Z" transform="translate(-88.434 264.375)" fill="#fff"/>
  <path id="Path_56" data-name="Path 56" d="M228.46-126.525a6.907,6.907,0,0,1-1.2-1.27c-.916-1.651.269-3.413,2.314-3.425,4.826-.029,9.654-.011,14.48-.011h1.74v-1.659q0-18.48,0-36.959c0-.505-.007-1.013.036-1.516a2.394,2.394,0,0,1,2.307-2.291,2.451,2.451,0,0,1,2.373,2.258,12.582,12.582,0,0,1,.023,1.378c0,13.239-.017,26.478.025,39.717a4.4,4.4,0,0,1-1.4,3.778Z" transform="translate(-118.57 267.876)" fill="#fff"/>
  <path id="Path_57" data-name="Path 57" d="M198.853-154.639c-3.641-.316-4.658-.879-4.675-2.5-.018-1.655,1.042-2.254,4.562-2.521v-9.1H189.5v1.583q0,11.381,0,22.763c0,.505.007,1.014-.039,1.516a2.362,2.362,0,0,1-2.331,2.254,2.455,2.455,0,0,1-2.336-2.142,7.83,7.83,0,0,1-.033-1.1q0-13.244,0-26.487c0-2.486.823-3.32,3.289-3.324q6.208-.01,12.416,0c2.285.005,3.214.878,3.22,3.143q.03,13.451,0,26.9c0,1.142-.2,2.335-1.445,2.7a2.754,2.754,0,0,1-2.263-.236,3.927,3.927,0,0,1-1.073-2.494c-.122-3.169-.048-6.344-.049-9.517Z" transform="translate(-104.662 267.892)" fill="#fff"/>
  <path id="Path_58" data-name="Path 58" d="M238.787-161.814c0,2.895.011,5.789,0,8.683-.011,2.182-.915,3.088-3.114,3.1q-6.34.023-12.68,0c-2.244-.007-3.159-.925-3.164-3.2q-.022-8.614,0-17.228c.005-2.342.914-3.231,3.269-3.236q6.27-.013,12.542,0c2.262.007,3.141.91,3.149,3.2C238.794-167.6,238.787-164.708,238.787-161.814Zm-14.03-6.976v13.82h9.1v-13.82Z" transform="translate(-116.221 267.893)" fill="#fff"/>
  <path id="Path_59" data-name="Path 59" d="M168.5-161.819c0,2.986.013,5.971-.005,8.956-.011,1.87-.9,2.8-2.777,2.817q-6.613.05-13.227,0c-1.89-.013-2.808-.914-2.816-2.781q-.039-9.024,0-18.05c.007-1.889.906-2.8,2.779-2.819q6.613-.049,13.227,0c1.937.013,2.808.949,2.817,2.92C168.51-167.79,168.5-164.8,168.5-161.819Zm-4.806,6.884v-13.855h-9.211v13.855Z" transform="translate(-93.091 267.896)" fill="#fff"/>
  <path id="Path_60" data-name="Path 60" d="M107.49-217.782c-2.97,0-5.765-.019-8.558.033a1.035,1.035,0,0,0-.7.73c-.044,4.361-.032,8.722-.032,13.191,1.955.247,4.475-.408,4.6,2.636.067,1.562-.92,2.038-4.612,2.415,0,.5.011,1.03,0,1.558-.029,1.1-.007,2.208-.125,3.3a2.09,2.09,0,0,1-2.1,1.986,2.179,2.179,0,0,1-2.437-1.773,6.188,6.188,0,0,1-.143-1.636q-.009-40.145,0-80.29c0-2.659.8-3.462,3.451-3.462q34.282,0,68.564,0c2.648,0,3.436.79,3.444,3.465.01,3.219,0,6.438,0,9.657,0,.276.009.553-.015.827-.145,1.682-1.028,2.6-2.453,2.575-1.387-.029-2.313-1.047-2.337-2.694-.036-2.437-.011-4.875-.011-7.311v-1.587h-9.256v13.8c1.692.082,3.374.119,5.048.263a1.882,1.882,0,0,1,1.823,1.915,3.948,3.948,0,0,1-1.108,2.3c-.353.383-1.184.41-1.809.44-1.282.062-2.569.018-4.068.018,0,1.432.014,2.793,0,4.154-.023,1.817-.831,2.8-2.3,2.822-1.526.029-2.4-1-2.419-2.855-.013-1.241-.015-2.483-.028-3.724a1.2,1.2,0,0,0-.127-.317h-9.131v13.858c1.929.73,2.866,2.109,1.968,3.419a13.933,13.933,0,0,1-3.5,3.513c-1.307.9-2.716-.048-3.437-2.02h-9.23v3.035c0,3.449-.005,6.9,0,10.347,0,1.406-.375,2.532-1.9,2.982a1.066,1.066,0,0,0-.574.633,2.451,2.451,0,0,1-2.625,1.782l-7.311,0h-1.706v3.638c0,1.7.019,3.4-.005,5.1-.027,1.916-.981,3.065-2.468,3.032-1.44-.032-2.352-1.143-2.373-2.987-.028-2.391-.007-4.782-.007-7.174ZM135.754-241.4v-13.93h-9.182v13.93Zm-.012-32.782h-9.2v13.846h9.2Zm14.09,13.861v-13.855h-9.2v13.855ZM98.266-241.462h9.148v-13.88H98.266Zm23.27.028v-13.89h-9.069v13.89Zm-23.3,18.806h9.151v-13.889H98.236ZM121.6-236.544h-9.152v13.893H121.6Zm-14.191-23.79v-13.82h-9.1v13.82Zm5.015-13.852v13.83h9.106v-13.83Z" transform="translate(-74.54 302.635)" fill="#fff"/>
  <path id="Path_61" data-name="Path 61" d="M149.94-300.049v-4.67h-4.993q-5.243,0-10.486,0c-2.575,0-3.236-.673-3.259-3.265,0-.409,0-.818,0-1.335H121.83c0,.565.008,1.1,0,1.641-.035,2.081-.865,2.947-2.923,2.955-4.829.017-9.658.005-14.488.006h-1.406c0,2.038,0,3.951,0,5.865-.005,2.848-.737,3.582-3.59,3.586q-6.83.007-13.66,0H84.1v1.9q0,47.672,0,95.344c0,.6.011,1.2-.045,1.792a2.2,2.2,0,0,1-2.23,2.157,2.31,2.31,0,0,1-2.417-1.992,8.475,8.475,0,0,1-.047-1.376q0-49.6,0-99.208c0-2.67.749-3.4,3.471-3.4q6.83,0,13.66,0h1.669c0-2.018,0-3.932,0-5.846,0-2.791.743-3.545,3.478-3.546,5.054,0,10.108,0,15.305,0,.035-.789.035-1.506.105-2.215a2.381,2.381,0,0,1,2.691-2.472q6.692-.025,13.384,0c1.908.005,2.766.875,2.8,2.773.009.588,0,1.176,0,1.916h2.964c4.324,0,8.647-.007,12.97,0,2.017.005,2.856.816,2.885,2.821.031,2.11.007,4.222.007,6.5.555.027,1.036.071,1.518.072,4.737.005,9.475,0,14.212.006,2.269,0,3.162.884,3.177,3.177.021,3.4.013,6.807,0,10.211a5.431,5.431,0,0,1-.206,1.492,2.158,2.158,0,0,1-2.144,1.632,2.118,2.118,0,0,1-2.227-1.509,6.272,6.272,0,0,1-.253-1.894c-.026-2.709-.011-5.418-.011-8.331h-1.839q-27.665,0-55.329,0a15.614,15.614,0,0,1-1.79-.064,2.311,2.311,0,0,1-2.2-2.23,2.4,2.4,0,0,1,2.154-2.449,9.715,9.715,0,0,1,1.378-.036q18.489,0,36.979,0Z" transform="translate(-69.917 314.188)" fill="#fff"/>
</svg>
