<svg xmlns="http://www.w3.org/2000/svg" width="136.065" height="136.098" viewBox="0 0 136.065 136.098">
  <g id="Group_292" data-name="Group 292" transform="translate(281.998 -189.028)">
    <g id="Group_8" data-name="Group 8" transform="translate(-281.998 189.029)">
      <path id="Path_6" data-name="Path 6" d="M289.593-164.317c3.028,1.006,4.513,3.3,5.644,6.162,4.6,11.664,9.334,23.279,14.077,34.888,1.184,2.9,1.023,5.485-1.032,7.918a1.393,1.393,0,0,0-.116,1.147c.432,1.251.974,2.463,1.446,3.7a8.941,8.941,0,0,1-5.007,11.843c-6.477,2.7-13,5.3-19.5,7.934-2.286.927-4.571,1.852-6.947,2.815A16.72,16.72,0,0,1,277.1-76.9a3.091,3.091,0,0,1-.409.828c-1.371,1.515-1.082,2.983-.152,4.64,1.078,1.921,1.881,4,2.877,5.966a1.626,1.626,0,0,0,1.107.836c6.063.051,12.127.036,18.389.036,0-.623-.011-1.179,0-1.735a78.082,78.082,0,0,1,.3-9.135,8.734,8.734,0,0,1,8.619-7.233c2.3-.038,4.606-.032,6.907,0a4.5,4.5,0,0,1,4.618,4.611q.014,22.654,0,45.308a4.391,4.391,0,0,1-4.517,4.534,57.241,57.241,0,0,1-8.862-.3,8.7,8.7,0,0,1-7.058-8.755c-.025-2.957,0-5.916,0-9.026H297.38c-6.155,0-12.311.042-18.465-.011-7.044-.062-12.146-3.276-15.193-9.653-1.6-3.347-3.156-6.715-4.7-10.088a2.15,2.15,0,0,0-1.629-1.316,16.659,16.659,0,0,1-9.67-6.566c-.259-.357-.509-.719-.767-1.077-.023-.032-.076-.044-.236-.134-3.678,1.484-7.437,3-11.2,4.518-2.129.856-4.235,1.781-6.4,2.538a8.931,8.931,0,0,1-11.127-4.7c-.358-.756-.661-1.538-1.048-2.443-1.344.533-2.687,1.032-3.992,1.615a1.183,1.183,0,0,0-.446.84,7.156,7.156,0,0,1-4.914,6.184c-1.281.483-2.533,1.042-3.828,1.48a6.6,6.6,0,0,1-8.341-3.525c-3.016-7.16-5.9-14.376-8.742-21.608a5.97,5.97,0,0,1,2.176-7.322,30.012,30.012,0,0,1,7.382-3.116,5.975,5.975,0,0,1,5.539,1.563,1.293,1.293,0,0,0,.995.332c1.321-.469,2.608-1.038,4-1.611-.646-1.588-1.21-3.118-1.907-4.583a2.163,2.163,0,0,0-1.2-.849c-4.779-1.708-9.543-3.468-14.372-5.029-2.943-.951-5.093-2.552-6-5.591V-119.4a8.158,8.158,0,0,1,4.736-5.011q34.749-14.006,69.471-28.08,14.589-5.9,29.17-11.83ZM247.948-95.349c.5-.159,1.05-.3,1.575-.509q26.826-10.843,53.648-21.7c2.453-.992,2.779-1.775,1.769-4.271q-7.172-17.741-14.344-35.481c-1.035-2.559-1.8-2.889-4.353-1.856q-32.637,13.22-65.276,26.439-15.523,6.283-31.059,12.534c-1.043.42-1.926.933-2.055,2.168-.124,1.178.6,1.94,2.4,2.569q28.042,9.829,56.087,19.65C246.831-95.632,247.347-95.517,247.948-95.349Zm-37.392-8.121c.231.632.354,1,.5,1.362q5.342,13.2,10.687,26.4c1.328,3.275,3.511,4.222,6.749,2.913q26.587-10.746,53.17-21.5,10.376-4.195,20.753-8.385c2.586-1.05,3.768-3,3.116-5.4-.434-1.6-1.161-3.112-1.777-4.715-.637.237-1.13.408-1.613.6q-25.47,10.313-50.933,20.642a8.269,8.269,0,0,1-6.3.122c-4.22-1.564-8.489-3-12.738-4.484Zm104.2,25.362c-1.96,0-3.854,0-5.747,0-3.855.007-5.5,1.645-5.5,5.492q-.006,17.142,0,34.286a10.651,10.651,0,0,0,.129,1.849c.327,1.831,1.4,3.256,3.214,3.435,2.6.258,5.252.066,7.9.066ZM263.8-66.576c1.548,3.248,3.027,6.757,4.856,10.071a9.939,9.939,0,0,0,8.726,5.434c7.034.171,14.073.077,21.111.086.115,0,.23-.1.316-.133v-8.794H297.25c-6.065,0-12.13-.019-18.195.013a2.98,2.98,0,0,1-3.1-1.962c-1.07-2.471-2.254-4.892-3.4-7.332-.178-.377-.4-.733-.44-.814ZM202.028-69.4c1.123-.44,2.646-1.012,4.148-1.634,1.57-.649,2.006-1.691,1.417-3.307-.272-.746-.591-1.476-.889-2.213q-3.6-8.9-7.2-17.8c-.771-1.9-1.728-2.29-3.651-1.53-1.108.437-2.221.868-3.315,1.338a2.223,2.223,0,0,0-1.393,3.2c.442,1.2.948,2.379,1.429,3.566q3.327,8.225,6.651,16.452A2.546,2.546,0,0,0,202.028-69.4Zm49.258-7.649a12.35,12.35,0,0,0,14.528,4.865c5.691-2.08,8.908-7.622,7.987-13.964Zm-40.142-.842,4.075-1.686c-2.267-5.587-4.484-11.047-6.73-16.576l-4.056,1.68Z" transform="translate(-183.292 164.317)" fill="#fff"/>
    </g>
  </g>
</svg>
