<svg id="Group_10" data-name="Group 10" xmlns="http://www.w3.org/2000/svg" width="180.177" height="130.839" viewBox="0 0 180.177 130.839">
  <path id="Path_20" data-name="Path 20" d="M686.87-52.2a32.988,32.988,0,0,1,1.719-4.17,13.253,13.253,0,0,1,11.74-7.1c1.334-.036,2.669-.005,4.038-.005.151-2.391.131-4.621.483-6.792a14.19,14.19,0,0,1,1.6-4.77,3.712,3.712,0,0,0,.086-3.558c-5.192-14.356-4.556-28.442,2.651-41.935,5.656-10.59,14.162-17.992,26.107-20.792,9.667-2.267,18.813-.278,27.6,3.895a57.834,57.834,0,0,1,13.771,9.318c4.453-2.893,8.627-5.916,13.089-8.43a41.7,41.7,0,0,1,21.127-5.684c12.617.148,22.466,5.888,30,15.721,7.157,9.335,10.11,20.044,9.745,31.743a50.048,50.048,0,0,1-3.575,17.084,2.1,2.1,0,0,0-.071,1.6c2.18,3.435,2.548,7.231,2.414,11.151-.013.4.047.8.088,1.438,1.308,0,2.577-.015,3.847,0,7.459.1,13.544,5.9,13.7,13.038.178,7.98-5.282,14.031-13.116,14.489-1.446.084-2.9.012-4.39.012-.128,2.287-.084,4.344-.381,6.352-1.71,11.579-14.034,16.945-23.75,10.387-.242-.163-.483-.328-.725-.494-4.624,7.873-12.427,9.217-17.6,7.685-6.645-1.965-10.534-7.041-11.206-15.109-.547.346-1.027.627-1.483.944-4.858,3.38-9.7,6.777-14.57,10.144-2.3,1.593-3.28,1.582-5.58-.005-5.343-3.686-10.675-7.39-16.141-11.178-.527,8.037-4.277,13.619-12.2,15.369-7.287,1.61-12.726-1.609-16.635-7.834-5.733,4.065-11.764,4.684-17.8.828-6.115-3.9-7.415-10.03-6.874-17.048-1.209,0-2.236.007-3.263,0-7.337-.051-12.215-3.824-14.172-10.948a1.685,1.685,0,0,0-.284-.431ZM795.983-63.568c0-3.379-.053-6.6.009-9.813A15.133,15.133,0,0,1,814.731-87.5a15.476,15.476,0,0,1,9.891,7.836c5.072-3.75,10.433-4.431,16.116-1.95a2.2,2.2,0,0,0,.267-.32,3.858,3.858,0,0,0,.285-.642c4.29-14.148,2.909-27.554-6.11-39.51-7.953-10.542-18.6-15.122-31.821-12.088-9.024,2.07-16.531,7-23.24,13.231-2.4,2.226-4.027,2.235-6.314-.029a52.378,52.378,0,0,0-15.218-10.578c-6.316-2.873-12.915-4.285-19.825-3.183-8.615,1.374-15.24,6.1-20.342,13-7.1,9.61-9.17,20.476-7.508,32.135.388,2.71,1.279,5.349,1.965,8.131,6.1-2.652,11.44-1.881,16.418,1.786.185-.277.318-.468.441-.666.155-.247.288-.512.455-.752,3.359-4.8,7.956-7.32,13.807-6.754,8.472.819,13.932,7.116,13.949,15.645.007,2.856,0,5.71,0,8.643Zm23.152,14.013q0-10.988-.009-21.978a15.769,15.769,0,0,0-.211-2.619,7.767,7.767,0,0,0-7.673-6.626,7.775,7.775,0,0,0-7.959,6.5,12.281,12.281,0,0,0-.23,2.263q-.02,22.33,0,44.661c0,4.57,2.734,8.059,6.663,8.622,5.3.761,9.377-2.869,9.412-8.492C819.169-34.668,819.134-42.111,819.135-49.555Zm-84.347-.254q0,11.253,0,22.506c0,3.737,1.514,6.618,5.034,8.113,5.388,2.29,10.982-1.721,11.045-7.911.062-6.153.015-12.308.015-18.462,0-8.909.04-17.818-.016-26.726C750.828-78.4,745.4-82.364,740-80.323c-3.258,1.231-5.2,4.221-5.21,8.183C734.77-64.7,734.788-57.253,734.788-49.809Zm-23.023.1c0,6.209-.092,12.42.031,18.626a7.847,7.847,0,0,0,8.036,7.616,7.981,7.981,0,0,0,7.851-7.875q.078-18.363.005-36.725a7.558,7.558,0,0,0-2.732-5.866,7.612,7.612,0,0,0-8.363-1.339,7.271,7.271,0,0,0-4.8,6.939C711.7-62.122,711.764-55.912,711.765-49.7Zm130.386.059h.007c0-6.207.094-12.419-.031-18.625a7.7,7.7,0,0,0-8.159-7.605,7.88,7.88,0,0,0-7.736,7.929q-.056,18.273,0,36.549a7.585,7.585,0,0,0,2.961,6.108,7.574,7.574,0,0,0,8.242,1.109,7.3,7.3,0,0,0,4.692-6.84C842.216-37.228,842.151-43.437,842.151-49.646ZM758.056-56.4v13.241h37.778V-56.4ZM795.585-35.76H758.9c.133.237.163.369.246.427,5.688,4.015,11.367,8.044,17.1,11.991a2.052,2.052,0,0,0,1.8-.163c2.31-1.49,4.552-3.086,6.8-4.667C788.324-30.611,791.783-33.07,795.585-35.76ZM704.438-56.411c-1.554,0-3.012-.112-4.446.023a6.787,6.787,0,0,0-6.071,6.433,6.627,6.627,0,0,0,5.251,6.749,30.758,30.758,0,0,0,5.266.053Zm145.083-.119v13.5c1.336,0,2.555.015,3.772,0a6.728,6.728,0,0,0,6.686-6.149,6.556,6.556,0,0,0-5.137-6.967A36.8,36.8,0,0,0,849.521-56.53Z" transform="translate(-686.87 142.271)" fill="#fff"/>
</svg>
